<?xml version="1.0" encoding="UTF-8" standalone="no"?>
<!-- Created with Inkscape (http://www.inkscape.org/) -->

<svg
   xmlns:ns1="http://www.iki.fi/pav/software/textext/"
   xmlns:dc="http://purl.org/dc/elements/1.1/"
   xmlns:cc="http://creativecommons.org/ns#"
   xmlns:rdf="http://www.w3.org/1999/02/22-rdf-syntax-ns#"
   xmlns:svg="http://www.w3.org/2000/svg"
   xmlns="http://www.w3.org/2000/svg"
   xmlns:xlink="http://www.w3.org/1999/xlink"
   xmlns:sodipodi="http://sodipodi.sourceforge.net/DTD/sodipodi-0.dtd"
   xmlns:inkscape="http://www.inkscape.org/namespaces/inkscape"
   width="256px"
   height="256px"
   viewBox="0 0 256 256"
   version="1.1"
   id="SVGRoot"
   inkscape:version="0.92.4 (5da689c313, 2019-01-14)"
   sodipodi:docname="icon.svg">
  <defs
     id="defs4768">
    <linearGradient
       inkscape:collect="always"
       xlink:href="#linearGradient2827"
       id="linearGradient2835"
       gradientUnits="userSpaceOnUse"
       x1="8.7896976"
       y1="20.390625"
       x2="-20.2272"
       y2="3.75"
       gradientTransform="matrix(1,0,0,1.0039901,0,-0.00196644)" />
    <linearGradient
       inkscape:collect="always"
       id="linearGradient2827">
      <stop
         style="stop-color:#004c80;stop-opacity:1;"
         offset="0"
         id="stop2823" />
      <stop
         style="stop-color:#004c80;stop-opacity:0;"
         offset="1"
         id="stop2825" />
    </linearGradient>
    <linearGradient
       id="linearGradient-1"
       y2="148.33669"
       x2="151.13554"
       y1="22.898218"
       x1="24.714943"
       gradientTransform="scale(0.99888681,1.0011144)"
       gradientUnits="userSpaceOnUse">
      <stop
         id="stop3723"
         offset="0%"
         stop-color="#387EB8" />
      <stop
         id="stop3725"
         offset="100%"
         stop-color="#366994" />
    </linearGradient>
    <linearGradient
       id="linearGradient-2"
       y2="231.90547"
       x2="238.25963"
       y1="103.26588"
       x1="102.48342"
       gradientTransform="scale(0.99888678,1.0011145)"
       gradientUnits="userSpaceOnUse">
      <stop
         id="stop3728"
         offset="0%"
         stop-color="#FFE052" />
      <stop
         id="stop3730"
         offset="100%"
         stop-color="#FFC331" />
    </linearGradient>
  </defs>
  <sodipodi:namedview
     id="base"
     pagecolor="#ffffff"
     bordercolor="#666666"
     borderopacity="1.0"
     inkscape:pageopacity="0.0"
     inkscape:pageshadow="2"
     inkscape:zoom="2"
     inkscape:cx="145.52184"
     inkscape:cy="80.34339"
     inkscape:document-units="px"
     inkscape:current-layer="layer1"
     showgrid="false"
     inkscape:window-width="1920"
     inkscape:window-height="1017"
     inkscape:window-x="1672"
     inkscape:window-y="-8"
     inkscape:window-maximized="1"
     inkscape:grid-bbox="true" />
  <metadata
     id="metadata4771">
    <rdf:RDF>
      <cc:Work
         rdf:about="">
        <dc:format>image/svg+xml</dc:format>
        <dc:type
           rdf:resource="http://purl.org/dc/dcmitype/StillImage" />
        <dc:title></dc:title>
      </cc:Work>
    </rdf:RDF>
  </metadata>
  <g
     inkscape:label="Layer 1"
     inkscape:groupmode="layer"
     id="layer1">
    <g
       transform="matrix(11.074796,0,0,11.067584,-4.4558281,-5.3376355)"
       id="g9269">
      <rect
         style="opacity:0.00199998;fill:#00d100;fill-opacity:1;stroke:#000000;stroke-width:0.71639937;stroke-miterlimit:4;stroke-dasharray:none;stroke-dashoffset:0;stroke-opacity:1"
         id="rect4770"
         width="22.351408"
         height="22.305132"
         x="1.349022"
         y="-23.080307"
         transform="translate(-0.56427485,23.950493)" />
      <ellipse
         cx="11.976562"
         cy="12.045916"
         rx="11.530613"
         ry="11.553091"
         id="path1373"
         style="opacity:1;fill:url(#linearGradient2835);fill-opacity:1;stroke:#000080;stroke-width:0;stroke-miterlimit:4;stroke-dasharray:none;stroke-dashoffset:0;stroke-opacity:1" />
      <g
         transform="translate(0.38859465,0.86871843)"
         id="g3569">
        <rect
           style="opacity:1;fill:#1668ff;fill-opacity:1;stroke:#1dadff;stroke-width:0.75590551;stroke-miterlimit:4;stroke-dasharray:none;stroke-dashoffset:0;stroke-opacity:1"
           id="rect3561"
           width="12.84375"
           height="7.125"
           x="5.25"
           y="6.890625" />
        <rect
           style="opacity:1;fill:#00ffff;fill-opacity:1;stroke:#1dadff;stroke-width:0.71786761;stroke-miterlimit:4;stroke-dasharray:none;stroke-dashoffset:0;stroke-opacity:1"
           id="rect3563"
           width="15.93842"
           height="0.10481382"
           x="3.6924577"
           y="15.269557" />
      </g>
      <g
         transform="matrix(-0.01651239,0,0,0.01651239,11.343081,9.1642964)"
         id="g3739">
        <path
           style="fill:url(#linearGradient-1)"
           inkscape:connector-curvature="0"
           d="M 126.91587,0.07227555 C 62.083583,0.07228017 66.132129,28.187465 66.132129,28.187465 l 0.07227,29.127047 h 61.867881 v 8.745341 H 41.630717 c 0,0 -41.4861659,-4.704909 -41.4861659,60.711467 -4.63e-6,65.41635 36.2100509,63.09655 36.2100509,63.09655 h 21.610389 v -30.35573 c 0,0 -1.164855,-36.21005 35.631847,-36.21005 h 61.361942 c 0,0 34.47544,0.5573 34.47544,-33.31903 V 33.969509 c 0,-5e-6 5.23432,-33.89723345 -62.51835,-33.89723345 z M 92.801807,19.65895 c 6.1554,-5e-6 11.130433,4.975035 11.130433,11.130434 1e-5,6.1554 -4.975033,11.130435 -11.130433,11.130435 -6.1554,5e-6 -11.130435,-4.975035 -11.130435,-11.130435 -5e-6,-6.155399 4.975035,-11.130434 11.130435,-11.130434 z"
           id="path3735" />
        <path
           style="fill:url(#linearGradient-2)"
           inkscape:connector-curvature="0"
           d="m 128.7571,254.12627 c 64.8323,0 60.78374,-28.11519 60.78374,-28.11519 l -0.0723,-29.12705 h -61.86787 v -8.74534 h 86.44156 c 0,0 41.48617,4.7049 41.48617,-60.71148 2e-5,-65.416353 -36.21005,-63.096551 -36.21005,-63.096551 h -21.61039 v 30.355724 c 0,0 1.16487,36.210047 -35.63185,36.210047 h -61.36195 c 0,0 -34.475435,-0.55729 -34.475435,33.31906 v 56.01355 c 0,0 -5.234323,33.89723 62.518355,33.89723 v 0 z m 34.11406,-19.58667 c -6.1554,0 -11.13043,-4.97504 -11.13043,-11.13044 0,-6.1554 4.97503,-11.13043 11.13043,-11.13043 6.1554,0 11.13043,4.97503 11.13043,11.13043 3e-5,6.1554 -4.97503,11.13044 -11.13043,11.13044 z"
           id="path3737" />
      </g>
      <g
         style="fill:#00d100;fill-opacity:1"
         transform="matrix(0.62357517,0,0,0.62357517,-80.439115,-70.748101)"
         ns1:version="0.11.0"
         ns1:texconverter="pdflatex"
         ns1:pdfconverter="pdf2svg"
         ns1:text="$\\checkmark$"
         ns1:preamble="C:\\Users\\Daniel\\AppData\\Roaming\\inkscape\\extensions\\textext\\default_packages.tex"
         ns1:scale="1.13257499504"
         ns1:alignment="middle center"
         inkscapeversion="0.92.4"
         ns1:jacobian_sqrt="1.5101"
         id="g11459">
        <g
           style="fill:#00d100;fill-opacity:1"
           id="surface1">
          <g
             style="fill:#00d100;fill-opacity:1"
             id="g11456">
            <path
               inkscape:connector-curvature="0"
               style="fill:#00d100;fill-opacity:1;stroke:none;stroke-width:0"
               d="m 1.734375,-2.625 c -0.09375,-0.140625 -0.09375,-0.140625 -0.15625,-0.140625 -0.234375,0 -0.734375,0.3125 -0.734375,0.484375 0,0.015625 0,0.03125 0.078125,0.171875 L 2.1875,-0.03125 c 0.046875,0.09375 0.140625,0.25 0.15625,0.265625 0.015625,0.03125 0.0625,0.03125 0.125,0.03125 0.203125,0 0.671875,-0.265625 0.71875,-0.46875 0.328125,-1.5 0.90625,-2.921875 1.8125,-4.15625 0.5,-0.703125 1.1875,-1.5 2.171875,-2.234375 0.171875,-0.125 0.28125,-0.21875 0.28125,-0.296875 0,-0.078125 -0.046875,-0.078125 -0.109375,-0.078125 -0.46875,0 -1.890625,1.34375 -2.453125,2.015625 -1.015625,1.1875 -1.6875,2.328125 -2.21875,3.859375 z m 0,0"
               transform="translate(148.712,134.765)"
               id="path11454" />
          </g>
        </g>
      </g>
    </g>
  </g>
</svg>
